<svg width="115" height="36" viewBox="0 0 115 36" fill="none" xmlns="http://www.w3.org/2000/svg"><path d="M58.228 15.473c.89 0 1.695.208 2.418.623.735.402 1.31.977 1.724 1.724.415.735.623 1.594.623 2.577 0 .984-.208 1.85-.623 2.596a4.465 4.465 0 01-1.724 1.724c-.723.403-1.529.604-2.418.604-1.22 0-2.18-.385-2.88-1.155v4.462h-2.772V15.616h2.648v1.102c.688-.83 1.689-1.245 3.005-1.245zm-.48 7.573c.712 0 1.292-.237 1.743-.711.462-.486.693-1.132.693-1.938 0-.805-.231-1.445-.693-1.92-.45-.485-1.032-.728-1.742-.728-.712 0-1.298.243-1.76.729-.45.473-.676 1.113-.676 1.92 0 .805.225 1.451.676 1.937.462.474 1.048.711 1.76.711zm10.318 2.275c-.794 0-1.57-.094-2.328-.284-.759-.201-1.363-.45-1.813-.747l.924-1.99c.426.272.942.497 1.546.675a6.697 6.697 0 001.778.249c1.173 0 1.76-.29 1.76-.871 0-.273-.16-.468-.48-.587-.32-.118-.812-.22-1.475-.302-.783-.119-1.428-.255-1.938-.409a3.069 3.069 0 01-1.333-.818c-.368-.39-.551-.948-.551-1.67 0-.605.171-1.138.515-1.6.356-.474.865-.842 1.529-1.103.675-.26 1.47-.39 2.382-.39.675 0 1.345.076 2.009.23.675.143 1.232.344 1.67.605l-.924 1.973a5.518 5.518 0 00-2.755-.711c-.593 0-1.037.083-1.333.249-.297.166-.445.379-.445.64 0 .296.16.503.48.622.32.118.83.231 1.529.338.782.13 1.422.272 1.92.426.498.142.93.41 1.298.8.367.391.55.936.55 1.636 0 .592-.177 1.12-.533 1.582-.355.462-.877.823-1.564 1.084-.675.249-1.481.373-2.418.373zm9.302-10.274v3.288h5.76v2.311h-5.76v4.533h-2.88V12.736h9.404v2.31h-6.524zm10.753 1.83a3.091 3.091 0 011.333-1.048c.569-.237 1.22-.356 1.956-.356v2.56a10.02 10.02 0 00-.623-.036c-.794 0-1.416.226-1.866.676-.45.439-.676 1.102-.676 1.991v4.515h-2.773v-9.563h2.649v1.262zm14.219 3.556c0 .035-.018.284-.053.747h-7.236c.13.592.439 1.06.925 1.404.486.343 1.09.515 1.813.515.498 0 .936-.07 1.316-.213a3.304 3.304 0 001.084-.711l1.475 1.6c-.9 1.03-2.216 1.546-3.946 1.546-1.078 0-2.032-.207-2.862-.622-.83-.426-1.47-1.013-1.92-1.76-.45-.746-.675-1.594-.675-2.542 0-.936.219-1.777.657-2.524a4.667 4.667 0 011.831-1.76c.782-.426 1.654-.64 2.614-.64.936 0 1.783.202 2.541.605a4.334 4.334 0 011.778 1.742c.439.746.658 1.617.658 2.613zm-4.96-2.862c-.628 0-1.155.178-1.582.533-.427.356-.687.842-.782 1.458h4.71c-.094-.605-.355-1.085-.781-1.44-.427-.367-.948-.551-1.565-.551zm16.174 2.862c0 .035-.018.284-.053.747h-7.235c.13.592.438 1.06.924 1.404.486.343 1.091.515 1.814.515.497 0 .936-.07 1.315-.213a3.303 3.303 0 001.084-.711l1.476 1.6c-.901 1.03-2.216 1.546-3.947 1.546-1.078 0-2.032-.207-2.862-.622-.829-.426-1.469-1.013-1.919-1.76-.451-.746-.676-1.594-.676-2.542 0-.936.219-1.777.658-2.524a4.66 4.66 0 011.831-1.76c.782-.426 1.653-.64 2.613-.64.936 0 1.783.202 2.542.605a4.344 4.344 0 011.778 1.742c.438.746.657 1.617.657 2.613zm-4.959-2.862c-.628 0-1.156.178-1.582.533-.427.356-.688.842-.783 1.458h4.711c-.095-.605-.355-1.085-.782-1.44-.427-.367-.948-.551-1.564-.551z" fill="#fff"/><path fill-rule="evenodd" clip-rule="evenodd" d="M40.234 6.36c.016.074.052.176.067.251.409 1.856.287 4.138-.412 6.843 0 0-.005.048-.032.069-.58 2.302-1.531 4.904-2.88 7.825-3.596 7.79-7.444 12.376-11.523 13.782-.449.143-.898.286-1.362.354-2.939.489-5.983-.599-9.152-3.289-1.578-1.307-3.178-3.033-4.787-5.102l-.752-.967c-.25-.322-.454-.64-.705-.962-1.58-2.31-2.725-4.446-3.38-6.453-.908-2.72-.912-5.163-.065-7.288.714-1.798 2.08-3.423 4.045-4.83 2.278-1.617 5.413-2.962 9.33-4.02a43.535 43.535 0 013.115-.762C26.592.788 30.515.511 33.463.977c3.796.613 6.012 2.41 6.771 5.382z" fill="#3F8EFC"/><path fill-rule="evenodd" clip-rule="evenodd" d="M25.49 35.124c-.449.144-.898.287-1.363.355-2.943.49-5.99-.6-9.164-3.293-1.58-1.309-3.182-3.037-4.792-5.108l-.754-.968c-.25-.322-.454-.64-.705-.962-1.583-2.313-2.729-4.452-3.385-6.46 5.684 2.202 14.11 6.877 20.164 16.436z" fill="#fff" fill-opacity=".33"/><path fill-rule="evenodd" clip-rule="evenodd" d="M24.142 35.506c-2.943.489-5.99-.6-9.163-3.293-1.58-1.309-3.182-3.036-4.792-5.107-4.916-6.32-6.52-11.545-4.881-15.708 7.6 4.114 19.261 12.393 18.836 24.108z" fill="#FFFDFD" fill-opacity=".33"/><path fill-rule="evenodd" clip-rule="evenodd" d="M40.24 6.377c.015.075.05.177.066.252.408 1.855.287 4.136-.412 6.839 0 0-.005.048-.032.07-.58 2.3-1.53 4.9-2.878 7.82-3.986 8.67-8.275 13.347-12.88 14.13-2.937.487-5.98-.6-9.147-3.288-1.577-1.307-3.177-3.032-4.784-5.1-.522-.671-.976-1.31-1.43-1.949 6.027-.836 22.335-4.407 31.496-18.774z" fill="#fff" fill-opacity=".12"/><path fill-rule="evenodd" clip-rule="evenodd" d="M33.49.974c.163.044.657.126.773.164C19.609 5.779 12.125 19.142 9.422 26.079c-.25-.322-.454-.639-.705-.96-3.759-5.444-4.906-10.021-3.442-13.733.713-1.797 2.078-3.42 4.042-4.827 2.276-1.615 5.409-2.96 9.325-4.018a43.514 43.514 0 013.112-.76C26.65.764 30.544.509 33.49.974z" fill="#fff" fill-opacity=".12"/><path fill-rule="evenodd" clip-rule="evenodd" d="M40.33 6.666c.755 3.408-.344 8.31-3.296 14.704-6.52 14.157-13.876 17.768-22.069 10.832C20.394 30.1 35.438 22.917 40.33 6.666z" fill="#203FD8" fill-opacity=".25"/><path d="M9.345 6.593c-1.987 1.381-3.326 2.985-4.067 4.805-1.465 3.714-.316 8.296 3.446 13.743.203.317.454.64.705.962l.752.967c1.63 2.096 3.21 3.795 4.787 5.103 3.17 2.69 6.262 3.784 9.154 3.29 4.607-.783 8.925-5.485 12.887-14.139 1.349-2.922 2.3-5.523 2.88-7.826C26.866 6.508 10.283 6.58 9.345 6.593z" fill="url(#paint0_linear)"/><path fill-rule="evenodd" clip-rule="evenodd" d="M39.895 13.45s-.005.048-.032.07c-.58 2.302-1.531 4.904-2.88 7.825-3.988 8.675-8.28 13.356-12.887 14.139-2.94.488-5.984-.6-9.154-3.29-1.578-1.308-3.178-3.034-4.787-5.103l-.753-.967c-.25-.322-.454-.64-.704-.962-3.762-5.447-4.91-10.028-3.446-13.743.714-1.799 2.08-3.424 4.046-4.832 2.277-1.616 5.413-2.962 9.331-4.02a43.54 43.54 0 013.116-.762c1.404-.3 2.776-.531 4.021-.704-1.245.173-2.57.41-3.974.71a43.54 43.54 0 00-3.115.761c6.032 1.216 14.535 4.112 21.218 10.878z" fill="url(#paint1_linear)"/><defs><linearGradient id="paint0_linear" x1="12.489" y1="30.863" x2="28" y2="6.06" gradientUnits="userSpaceOnUse"><stop offset=".21" stop-color="#3F64FC" stop-opacity="0"/><stop offset=".929" stop-color="#3F64FC" stop-opacity=".91"/><stop offset="1" stop-color="#3F64FC"/></linearGradient><linearGradient id="paint1_linear" x1="14.641" y1="33.04" x2="27.238" y2="1.688" gradientUnits="userSpaceOnUse"><stop offset=".58" stop-color="#0042FF" stop-opacity="0"/><stop offset=".828" stop-color="#04F" stop-opacity=".59"/><stop offset=".917" stop-color="#004BFF" stop-opacity=".802"/><stop offset=".98" stop-color="#0056FF" stop-opacity=".953"/><stop offset="1" stop-color="#005CFF"/></linearGradient></defs></svg>